#!OML:ASF X:\für Bonn\!DataBase\2005_08_12_Daniel\c3d\Daniel.ASF
:FULLY-SPECIFIED
:DEGREES
1
root 3.61415 16.9305 0.20455 -406.775 -88.7661 398.865
lowerback 16.9495 0.0891498 4.73148
upperback 3.86963 0.532146 -3.0523
thorax -5.26168 0.104641 -6.07002
lowerneck -6.55496 1.4382 2.05185
upperneck -1.99761 1.68777 -8.45111
head 0.606672 0.690037 -3.02284
rclavicle -1.5704e-014 2.3059e-014
rhumerus -39.7617 31.3124 -111.103
rradius 57.407
rwrist -2.21859
rhand -19.5217 374.566
rfingers 7.12502
rthumb 6.80159 -15.3048
lclavicle -1.5704e-014 2.3059e-014
lhumerus -223.606 203.023 -75.0129
lradius 81.2458
lwrist -1.37786
lhand 2.85452 3.09717
lfingers 7.12502
lthumb 28.3215 30.9756
rfemur 2.515 20.9402 25.2195
rtibia 30.9153
rfoot -44.5598 -19.7142
rtoes -9.70773
lfemur -203.212 194.331 -194.359
ltibia 40.3275
lfoot 346.108 6.68952
ltoes 3.51775
2
root 3.63926 16.9289 0.194209 -405.36 -88.7831 397.439
lowerback 16.9713 0.0631188 4.83002
upperback 3.93529 0.516561 -2.9963
thorax -5.20423 0.0985845 -6.06217
lowerneck -6.68369 1.50781 1.99539
upperneck -2.09363 1.77621 -8.40071
head 0.601869 0.733262 -2.99214
rclavicle -9.79014e-015 -1.47101e-014
rhumerus -40.0053 31.0742 -110.948
rradius 57.9679
rwrist -2.4389
rhand -19.5644 374.244
rfingers 7.12502
rthumb 6.76037 -15.6281
lclavicle -9.79014e-015 -1.47101e-014
lhumerus -223.494 202.523 -75.2929
lradius 81.4169
lwrist -0.82566
lhand 1.99944 3.27571
lfingers 7.12502
lthumb 27.5041 31.287
rfemur 2.30463 20.8571 25.2355
rtibia 31.0991
rfoot -44.5447 -19.6293
rtoes -9.95544
lfemur -203.229 194.063 -194.286
ltibia 40.7084
lfoot 346.027 6.65982
ltoes 3.16095
3
root 3.66357 16.9265 0.185316 -404.813 -88.7931 396.891
lowerback 17.0019 0.0448835 4.89863
upperback 3.98897 0.506512 -2.94308
thorax -5.164 0.0948584 -6.04165
lowerneck -6.80172 1.55905 1.94261
upperneck -2.1836 1.84044 -8.34909
head 0.595677 0.764599 -2.96244
rclavicle -4.77083e-015 1.59028e-015
rhumerus -40.2833 30.6931 -110.753
rradius 58.5806
rwrist -2.50214
rhand -19.5218 373.932
rfingers 7.12502
rthumb 6.80149 -15.9383
lclavicle -4.77083e-015 1.59028e-015
lhumerus -223.389 202.048 -75.5703
lradius 81.5631
lwrist -0.315851
lhand 1.13945 3.41538
lfingers 7.12502
lthumb 26.6813 31.5547
rfemur 2.0943 20.8402 25.2428
rtibia 31.2854
rfoot -44.5725 -19.584
rtoes -10.0851
lfemur -203.242 193.834 -194.232
ltibia 41.0882
lfoot 345.928 6.6659
ltoes 2.95674
4
root 3.68729 16.9248 0.177833 -404.901 -88.8214 396.968
lowerback 17.0408 0.0220597 4.98092
upperback 4.05655 0.491391 -2.89939
thorax -5.11363 0.0887544 -6.03828
lowerneck -6.89136 1.61916 1.8634
upperneck -2.30797 1.91574 -8.28587
head 0.573488 0.802989 -2.92352
rclavicle 6.60959e-015 -1.86858e-014
rhumerus -40.5039 30.3529 -110.561
rradius 59.1196
rwrist -2.52723
rhand -19.5214 373.627
rfingers 7.12502
rthumb 6.80182 -16.2436
lclavicle 6.60959e-015 -1.86858e-014
lhumerus -223.23 201.601 -75.8666
lradius 81.6564
lwrist 0.271273
lhand 0.292835 3.59085
lfingers 7.12502
lthumb 25.8708 31.851
rfemur 1.87819 20.7387 25.2137
rtibia 31.4691
rfoot -44.5391 -19.4949
rtoes -10.2804
lfemur -203.233 193.621 -194.181
ltibia 41.4674
lfoot 345.805 6.66078
ltoes 2.82366
5
root 3.71067 16.9223 0.171021 -404.471 -88.8586 396.538
lowerback 17.0746 -0.00219856 5.05988
upperback 4.1199 0.474739 -2.84306
thorax -5.0655 0.0819749 -6.0189
lowerneck -6.94504 1.6701 1.75846
upperneck -2.46329 1.97804 -8.2216
head 0.533955 0.836362 -2.87997
rclavicle 6.21202e-015 9.14409e-015
rhumerus -40.6998 29.93 -110.327
rradius 59.6336
rwrist -2.45885
rhand -19.4507 373.332
rfingers 7.12502
rthumb 6.87012 -16.537
lclavicle 6.21202e-015 9.14409e-015
lhumerus -223.065 201.137 -76.1404
lradius 81.6714
lwrist 0.751831
lhand -0.604638 3.73702
lfingers 7.12502
lthumb 25.0111 32.1197
rfemur 1.65452 20.6277 25.1988
rtibia 31.6571
rfoot -44.4643 -19.4094
rtoes -10.3273
lfemur -203.242 193.399 -194.112
ltibia 41.8472
lfoot 345.738 6.56537
ltoes 2.99164
6
root 3.73379 16.92 0.164419 -403.651 -88.8935 395.724
lowerback 17.1191 -0.0295073 5.13817
upperback 4.18305 0.453046 -2.80238
thorax -5.02383 0.0723317 -6.01536
lowerneck -6.99537 1.71726 1.68641
upperneck -2.60354 2.03499 -8.13708
head 0.498441 0.867259 -2.83599
rclavicle -2.5842e-015 -9.93923e-015
rhumerus -40.8012 29.4133 -110.092
rradius 60.0544
rwrist -2.35983
rhand -19.3578 373.024
rfingers 7.12502
rthumb 6.9598 -16.8417
lclavicle -2.5842e-015 -9.93923e-015
lhumerus -222.873 200.688 -76.4315
lradius 81.6281
lwrist 1.19371
lhand -1.48906 3.82753
lfingers 7.12502
lthumb 24.1634 32.3256
rfemur 1.43239 20.5673 25.2024
rtibia 31.8523
rfoot -44.451 -19.3194
rtoes -10.3423
lfemur -203.255 193.214 -194.025
ltibia 42.2312
lfoot 345.631 6.4264
ltoes 3.22915
7
root 3.75576 16.9171 0.159318 -404.627 -88.9377 396.703
lowerback 17.164 -0.0517638 5.17796
upperback 4.2595 0.430286 -2.76103
thorax -4.96875 0.0629535 -5.98834
lowerneck -7.0452 1.7758 1.63576
upperneck -2.78326 2.10204 -8.08641
head 0.451674 0.903081 -2.8073
rclavicle 2.71341e-014 -4.17448e-014
rhumerus -40.8483 28.8542 -109.813
rradius 60.4335
rwrist -2.182
rhand -19.192 372.759
rfingers 7.12502
rthumb 7.11983 -17.1014
lclavicle 2.71341e-014 -4.17448e-014
lhumerus -222.664 200.179 -76.7352
lradius 81.5296
lwrist 1.55556
lhand -2.28691 3.79972
lfingers 7.12502
lthumb 23.3982 32.3973
rfemur 1.1984 20.4406 25.1514
rtibia 32.0536
rfoot -44.3546 -19.2399
rtoes -10.2875
lfemur -203.235 193.01 -193.972
ltibia 42.6207
lfoot 345.525 6.24845
ltoes 3.41115
8
root 3.77847 16.9139 0.154151 -404.865 -88.9751 396.948
lowerback 17.2357 -0.0852197 5.21136
upperback 4.3157 0.393516 -2.72277
thorax -4.95185 0.0451608 -5.95903
lowerneck -7.07933 1.83253 1.56131
upperneck -2.94514 2.17035 -8.00441
head 0.40697 0.940283 -2.76374
rclavicle -7.05686e-015 1.43125e-014
rhumerus -40.8377 28.154 -109.52
rradius 60.7092
rwrist -1.81407
rhand -18.9698 372.494
rfingers 7.12502
rthumb 7.33432 -17.3593
lclavicle -7.05686e-015 1.43125e-014
lhumerus -222.475 199.672 -77.0234
lradius 81.3714
lwrist 1.90947
lhand -3.15795 3.73134
lfingers 7.12502
lthumb 22.5624 32.4329
rfemur 0.960649 20.351 25.1198
rtibia 32.2595
rfoot -44.3133 -19.1295
rtoes -10.2379
lfemur -203.214 192.826 -193.899
ltibia 43.022
lfoot 345.38 6.02746
ltoes 3.4218
9
root 3.80051 16.9098 0.150224 -406.257 -89.0262 398.339
lowerback 17.3126 -0.109506 5.24773
upperback 4.39081 0.366831 -2.70354
thorax -4.91562 0.0328453 -5.95395
lowerneck -7.12733 1.88193 1.52946
upperneck -3.13424 2.22384 -7.92626
head 0.355942 0.969815 -2.72995
rclavicle -1.93815e-015 1.47101e-014
rhumerus -40.713 27.3763 -109.204
rradius 60.9005
rwrist -1.38372
rhand -18.7339 372.313
rfingers 7.12502
rthumb 7.56203 -17.5318
lclavicle -1.93815e-015 1.47101e-014
lhumerus -222.242 199.224 -77.3363
lradius 81.1653
lwrist 2.26399
lhand -4.05856 3.62759
lfingers 7.12502
lthumb 21.6977 32.4317
rfemur 0.731143 20.2869 25.0872
rtibia 32.4648
rfoot -44.2523 -19.0821
rtoes -10.1804
lfemur -203.17 192.647 -193.84
ltibia 43.4281
lfoot 345.185 5.78499
ltoes 3.40714
10
root 3.82314 16.9062 0.147471 -405.568 -89.0893 397.658
lowerback 17.397 -0.151718 5.29097
upperback 4.46752 0.320441 -2.64874
thorax -4.88466 0.010753 -5.91017
lowerneck -7.18618 1.9441 1.43868
upperneck -3.32772 2.29791 -7.83759
head 0.305245 1.00977 -2.68126
rclavicle 6.85807e-015 -2.3059e-014
rhumerus -40.6026 26.6605 -108.856
rradius 61.1044
rwrist -0.929084
rhand -18.4818 372.053
rfingers 7.12502
rthumb 7.80534 -17.7829
lclavicle 6.85807e-015 -2.3059e-014
lhumerus -222.011 198.726 -77.6081
lradius 80.9496
lwrist 2.63402
lhand -5.00434 3.54513
lfingers 7.12502
lthumb 20.7892 32.4514
rfemur 0.498175 20.195 25.0835
rtibia 32.6633
rfoot -44.1987 -19.034
rtoes -10.1214
lfemur -203.14 192.471 -193.748
ltibia 43.8432
lfoot 345.02 5.5519
ltoes 3.29103
11
root 3.84458 16.9044 0.144979 -407.471 -89.145 399.589
lowerback 17.4693 -0.189691 5.29994
upperback 4.53361 0.270823 -2.63482
thorax -4.85913 -0.013135 -5.89015
lowerneck -7.26371 2.01331 1.49767
upperneck -3.4983 2.37242 -7.8216
head 0.268766 1.04708 -2.68461
rclavicle 1.06847e-014 -2.78299e-014
rhumerus -40.5206 25.9602 -108.56
rradius 61.3691
rwrist -0.450689
rhand -18.2326 371.755
rfingers 7.12502
rthumb 8.04582 -18.072
lclavicle 1.06847e-014 -2.78299e-014
lhumerus -221.813 198.277 -77.928
lradius 80.7442
lwrist 2.98754
lhand -5.95394 3.51728
lfingers 7.12502
lthumb 19.8766 32.5208
rfemur 0.245725 20.1324 25.0266
rtibia 32.8476
rfoot -44.1237 -18.9232
rtoes -9.91084
lfemur -203.119 192.308 -193.692
ltibia 44.2496
lfoot 344.837 5.33635
ltoes 3.126
